<svg data-v-423bf9ae="" xmlns="http://www.w3.org/2000/svg" viewBox="0 0 419.99417359819154 206" class="iconAboveSlogan"><!----><!----><!----><g data-v-423bf9ae="" id="950e56e0-a7e4-4db3-80e3-2b107e203ac3" fill="#28282D" transform="matrix(5.763608587456673,0,0,5.763608587456673,-3.2276157920362607,123.95042032249688)"><path d="M8.36 7.41C8.27 9.84 6.27 10.26 5.42 10.26C4.05 10.26 1.99 9.88 1.99 5.36C1.99 0.94 4.00 0.46 5.42 0.46C6.31 0.46 8.16 0.78 8.36 3.30L8.51 3.30L8.65 1.16C7.77 0.45 6.86 0.31 5.42 0.31C2.56 0.31 0.56 2.03 0.56 5.36C0.56 8.64 2.56 10.42 5.42 10.42C6.92 10.42 7.62 10.23 8.65 9.55L8.51 7.41ZM15.04 7.06C15.04 9.59 14.10 10.26 12.99 10.26C11.89 10.26 10.93 9.59 10.93 7.06C10.93 4.52 11.89 3.85 12.99 3.85C14.10 3.85 15.04 4.52 15.04 7.06ZM16.17 7.06C16.17 5.21 15.13 3.70 12.99 3.70C10.86 3.70 9.81 5.21 9.81 7.06C9.81 8.89 10.86 10.42 12.99 10.42C15.13 10.42 16.17 8.89 16.17 7.06ZM23.49 10.04C22.90 9.97 22.78 9.86 22.78 9.18L22.78 3.70L21.15 3.95L21.15 4.10C21.83 4.12 21.81 4.17 21.81 5.03L21.81 8.72C21.60 9.32 21.10 9.88 20.26 9.88C19.45 9.88 18.68 9.46 18.68 8.27L18.68 3.70L16.95 3.95L16.95 4.10C17.74 4.10 17.74 4.16 17.74 5.10L17.74 8.32C17.74 10.09 18.89 10.42 19.85 10.42C20.82 10.42 21.62 9.77 21.81 9.06L21.81 10.22C21.81 10.22 21.81 10.47 22.13 10.40L23.49 10.18L23.49 10.04ZM29.76 8.51C29.54 9.13 28.80 9.93 27.61 9.87C26.60 9.83 25.44 9.03 25.44 6.97C25.44 4.27 27.06 3.85 27.65 3.85C28.77 3.85 29.20 4.35 29.06 4.33C28.97 4.30 28.81 4.37 28.70 4.48C28.48 4.69 28.49 5.03 28.71 5.25C28.91 5.45 29.29 5.42 29.48 5.22C29.64 5.07 29.65 4.84 29.60 4.66C29.54 4.42 29.22 3.70 27.65 3.70C25.63 3.70 24.36 5.32 24.36 7.08C24.36 9.35 25.97 10.42 27.38 10.42C29.09 10.42 29.75 9.24 29.88 8.55ZM36.69 10.15C36.20 10.02 36.12 9.95 36.12 9.18L36.12 5.99C36.12 4.31 35.27 3.70 34.10 3.70C33.15 3.70 32.19 4.49 31.99 5.32L31.99 0.01L30.32 0.34L30.32 0.49C30.91 0.55 31.02 0.73 31.02 1.22L31.02 9.18C31.02 9.90 31.00 9.98 30.46 10.14L30.46 10.29L32.56 10.29L32.56 10.14C32.06 10.01 31.99 9.95 31.99 9.18L31.99 5.50C32.17 5.07 32.73 4.24 33.57 4.24C34.64 4.24 35.17 4.93 35.17 6.05L35.17 9.18C35.17 9.90 35.14 10.00 34.61 10.15L34.61 10.29L36.69 10.29L36.69 10.15ZM39.51 0.43L39.51 2.73L39.65 2.73C39.68 0.59 41.34 0.57 41.99 0.57L43.09 0.57L43.09 9.10C43.09 10.01 42.76 10.14 42.17 10.14L42.17 10.29L45.08 10.29L45.08 10.14C44.49 10.14 44.16 10.01 44.16 9.10L44.16 0.57L45.26 0.57C45.56 0.57 47.57 0.59 47.60 2.73L47.75 2.73L47.75 0.43ZM50.85 3.72C50.16 3.72 49.25 4.27 48.85 5.10L48.85 3.70L47.18 4.02L47.18 4.16C47.77 4.23 47.88 4.44 47.88 4.91L47.88 9.20C47.88 9.91 47.85 9.98 47.32 10.14L47.32 10.29L49.42 10.29L49.42 10.14C48.92 10.01 48.85 9.97 48.85 9.20L48.85 5.40C49.25 4.42 50.37 3.99 50.30 4.27C50.26 4.42 50.29 4.59 50.37 4.73C50.58 5.04 50.99 5.12 51.28 4.93C51.59 4.73 51.67 4.34 51.48 4.03C51.32 3.82 51.07 3.72 50.85 3.72ZM55.48 6.78C55.48 6.78 55.48 8.95 55.48 8.95C55.33 9.28 54.96 9.90 54.10 9.90C53.27 9.90 52.89 9.31 52.89 8.71C52.89 7.80 53.73 7.20 55.48 6.78ZM57.09 9.86C56.48 9.86 56.49 9.02 56.49 9.02L56.49 6.50C56.49 4.83 56.11 3.70 54.74 3.70C54.74 3.70 54.07 3.67 53.48 3.96C52.74 4.37 52.47 4.80 52.39 5.00C52.30 5.18 52.33 5.42 52.47 5.60C52.67 5.87 53.03 5.89 53.27 5.70C53.52 5.49 53.58 5.12 53.37 4.87C53.27 4.75 53.13 4.69 52.99 4.66C52.91 4.65 53.00 4.35 53.61 4.07C54.80 3.54 55.48 4.40 55.48 5.84L55.48 6.62C53.12 7.24 51.93 7.63 51.93 8.96C51.93 10.42 53.51 10.42 53.51 10.42C54.49 10.42 55.29 9.91 55.48 9.21C55.52 10.46 56.56 10.42 56.56 10.42C57.22 10.42 57.60 9.90 57.68 9.48L57.54 9.42C57.44 9.86 57.09 9.86 57.09 9.86ZM61.99 3.82L61.99 3.96C63.53 3.96 62.85 5.71 62.85 5.71L61.61 9.10L59.70 4.90C59.70 4.90 59.21 3.96 60.21 3.96L60.21 3.82L57.51 3.82L57.51 3.96C57.74 3.99 58.14 3.98 58.49 4.66C58.49 4.66 58.70 5.04 61.18 10.42L61.29 10.42L63.06 5.59C63.71 3.98 64.05 3.96 64.68 3.96L64.68 3.82ZM65.83 6.76C65.83 4.80 66.86 3.85 67.66 3.85C68.28 3.85 69.36 4.59 69.36 6.76ZM69.97 8.61C69.75 9.32 68.84 9.95 67.94 9.91C66.77 9.86 65.86 9.07 65.83 6.93L70.31 6.93C70.31 4.72 69.12 3.70 67.68 3.70C66.05 3.70 64.75 5.01 64.75 7.13C64.75 9.09 66.00 10.42 67.69 10.42C69.23 10.42 69.99 9.28 70.08 8.65ZM73.43 10.14C72.93 10.01 72.86 9.97 72.86 9.20L72.86 0.01L71.19 0.32L71.19 0.48C71.78 0.53 71.89 0.73 71.89 1.22L71.89 9.20C71.89 9.91 71.86 9.98 71.33 10.14L71.33 10.29L73.43 10.29L73.43 10.14Z"></path></g><defs data-v-423bf9ae=""><linearGradient data-v-423bf9ae="" gradientTransform="rotate(25)" id="7464820f-85dd-40e6-afb4-f865c7fbfd8a" x1="0%" y1="0%" x2="100%" y2="0%"><stop data-v-423bf9ae="" offset="0%" style="stop-color: rgb(87, 72, 81); stop-opacity: 1;"></stop><stop data-v-423bf9ae="" offset="100%" style="stop-color: rgb(149, 168, 177); stop-opacity: 1;"></stop></linearGradient></defs><g data-v-423bf9ae="" id="b7bc44a1-ba23-4b3f-9e44-5adee5067990" transform="matrix(1.110595703125,0,0,1.110595703125,153.60562972864136,0.49360837633139454)" stroke="none" fill="url(#7464820f-85dd-40e6-afb4-f865c7fbfd8a)"><path d="M92.139 54.505c-6.827-10.277-15.203-4.646-26.324-1.971-11.121 2.673-8.447-14.782 1.548-30.267 9.994-15.485.212-21.116-7.32-16.049-4.99 3.357-30.06 14.671-34.49 3.801-1.167-2.864-2.306-5.93-4.136-7.76-.389-.39-.563-.141-.431.286.27.875.484 1.551.873 3.218.41 1.662.852 3.693 1.292 6.038.457 2.343.861 5.005 1.21 7.924.329 2.919.643 6.093.777 9.46.1 1.683.133 3.414.176 5.183.034.885.016 1.78.008 2.683l-.025 2.735c-.037 1.817-.053 3.641.006 5.483.028.918.08 1.836.157 2.742.076.903.181 1.805.369 2.63.093.41.206.803.343 1.135.136.329.303.586.428.701.132.105.167.133.379.15.201.02.548-.037.918-.143.76-.222 1.626-.611 2.51-1.002.89-.394 1.811-.808 2.779-1.158 1.928-.708 4.053-1.207 6.225-1.181 2.018.047 4.04.218 6.033.625 1.999.396 3.936 1.107 5.709 2.001 1.771.903 3.387 1.971 4.892 3.088 3.014 2.236 5.612 4.672 8.064 6.973 2.445 2.3 4.692 4.566 6.74 6.61.982.928 2.104 1.723 3.188 2.385 1.094.662 2.2 1.178 3.279 1.534 2.161.733 4.207.787 5.811.438.805-.172 1.498-.43 2.095-.682a11.081 11.081 0 0 0 1.451-.783L87.17 71c.138-.103.253-.191.346-.262l.284-.215.008-.007a.084.084 0 0 1 .118.017.085.085 0 0 1-.013.115l-.274.233-.335.285c-.138.109-.304.228-.487.365a10.6 10.6 0 0 1-3.578 1.704c-1.659.439-3.819.479-6.118-.19-2.293-.66-4.732-1.929-6.954-3.86-2.136-1.997-4.431-4.169-6.911-6.413-2.486-2.233-5.129-4.575-8.077-6.715-1.476-1.062-3.037-2.062-4.713-2.888a21.779 21.779 0 0 0-5.342-1.812c-1.869-.371-3.792-.526-5.721-.562-1.919-.013-3.824.436-5.633 1.11a49.98 49.98 0 0 0-2.688 1.109c-.893.386-1.782.79-2.733 1.064-.476.128-.974.233-1.488.192a2.186 2.186 0 0 1-1.397-.611c-.37-.362-.614-.812-.802-1.268a8.64 8.64 0 0 1-.419-1.403c-.398-1.899-.467-3.813-.511-5.693-.033-1.882.011-3.74.074-5.565.101-3.645.154-7.171.046-10.513-.066-3.343-.283-6.498-.512-9.406-.267-2.905-.557-5.565-.905-7.911a111.446 111.446 0 0 0-1.024-6.052c-.402-2.052-.631-3.175-1.136-3.892C18.902.011 16.888-.415 14.433.443 10.799 1.715 8.105 9.125 8.87 34.515c.731 24.271 14.15 54.462 40.674 57.09v2.86c-14.857.096-26.607 1.291-26.607 2.752 0 1.524 12.764 2.758 28.507 2.758 15.744 0 28.507-1.233 28.507-2.758 0-1.461-11.748-2.656-26.606-2.752v-2.656c29.034-.018 47.052-24.877 38.794-37.304z"></path></g><!----><g data-v-423bf9ae="" id="097f85f2-995f-4a9f-8adb-76f3c8a52646" fill="#28282D" transform="matrix(0.9629949670108926,0,0,0.9629949670108926,52.517727015151195,221.7474202612867)"><path d="M8.22 3.92L8.02 3.92L0.73 3.92L0.52 3.92L0.42 3.92L0.42 5.96L0.77 5.96C0.97 5.96 1.05 5.85 1.06 5.63C1.06 5.53 1.09 5.17 1.12 4.52L4.02 4.52L4.02 13.26C3.85 13.26 3.71 13.27 3.57 13.27C3.43 13.27 3.32 13.29 3.25 13.29L3.12 13.29C2.94 13.30 2.84 13.38 2.84 13.54L2.84 13.82L4.02 13.82L4.73 13.82L5.92 13.82L5.92 13.54C5.92 13.38 5.82 13.30 5.64 13.29L5.50 13.29C5.43 13.29 5.33 13.27 5.19 13.27C5.05 13.27 4.90 13.26 4.73 13.26L4.73 4.52L7.62 4.52C7.66 5.24 7.67 5.60 7.67 5.63C7.69 5.85 7.78 5.96 7.98 5.96L8.32 5.96L8.32 3.92ZM24.42 13.29L24.32 13.29L24.14 13.29C24.05 13.29 23.97 13.27 23.88 13.27L20.92 9.53C20.83 9.42 20.72 9.32 20.61 9.25C21.04 9.21 21.43 9.11 21.78 8.96C22.13 8.81 22.41 8.61 22.67 8.37C22.90 8.13 23.10 7.85 23.23 7.55C23.35 7.24 23.42 6.89 23.42 6.51C23.42 5.66 23.14 5.03 22.58 4.58C22.02 4.14 21.17 3.92 20.02 3.92L17.61 3.92L16.44 3.92L16.44 4.19C16.44 4.34 16.52 4.42 16.70 4.44L16.84 4.44C16.91 4.44 17.01 4.45 17.15 4.45C17.29 4.45 17.44 4.47 17.61 4.47L17.61 13.26C17.44 13.26 17.29 13.27 17.15 13.27C17.01 13.27 16.91 13.29 16.84 13.29L16.70 13.29C16.52 13.30 16.42 13.38 16.42 13.54L16.42 13.82L17.61 13.82L18.33 13.82L19.50 13.82L19.50 13.54C19.50 13.38 19.40 13.30 19.22 13.29L19.08 13.29C19.01 13.29 18.91 13.27 18.77 13.27C18.63 13.27 18.49 13.26 18.33 13.26L18.33 9.34L19.50 9.34C19.70 9.34 19.84 9.35 19.92 9.39C20.01 9.44 20.09 9.52 20.17 9.62L23.35 13.64C23.41 13.71 23.45 13.75 23.51 13.78C23.56 13.80 23.63 13.82 23.70 13.82L23.77 13.82L24.32 13.82L24.68 13.82L24.68 13.54C24.68 13.38 24.60 13.30 24.42 13.29ZM19.92 8.81L18.33 8.81L18.33 4.48L20.02 4.48C20.90 4.48 21.57 4.66 22.04 5.00C22.50 5.33 22.72 5.87 22.72 6.57C22.72 6.92 22.67 7.21 22.54 7.49C22.41 7.77 22.22 7.99 21.98 8.19C21.74 8.39 21.45 8.55 21.10 8.65C20.75 8.75 20.36 8.81 19.92 8.81ZM42.18 13.22L41.72 13.17L37.94 3.91L37.23 3.91L33.43 13.17L32.98 13.22C32.80 13.23 32.72 13.33 32.72 13.50L32.72 13.82L33.17 13.82L33.46 13.82L33.71 13.82L33.81 13.82L35.13 13.82L35.13 13.50C35.13 13.31 35.01 13.23 34.80 13.22C34.79 13.22 34.76 13.20 34.72 13.20C34.68 13.20 34.62 13.19 34.52 13.19C34.43 13.19 34.30 13.19 34.16 13.17L35.14 10.75L35.21 10.57L39.94 10.57L40.01 10.75L40.99 13.17C40.85 13.19 40.74 13.19 40.64 13.19C40.54 13.19 40.47 13.20 40.43 13.20C40.39 13.20 40.36 13.22 40.35 13.22C40.14 13.23 40.03 13.31 40.03 13.50L40.03 13.82L41.34 13.82L41.44 13.82L41.71 13.82L41.99 13.82L42.45 13.82L42.45 13.50C42.45 13.33 42.36 13.23 42.18 13.22ZM37.38 5.22C37.41 5.14 37.45 5.04 37.48 4.94C37.51 4.84 37.55 4.75 37.58 4.63C37.60 4.75 37.65 4.84 37.67 4.94C37.70 5.04 37.74 5.12 37.77 5.21L39.73 10.04L35.43 10.04ZM57.19 3.92L56.63 3.92L56.60 3.92L55.13 3.92L55.13 4.19C55.13 4.34 55.22 4.42 55.40 4.44L55.52 4.44C55.58 4.44 55.66 4.45 55.79 4.45C55.92 4.45 56.06 4.47 56.21 4.47L53.00 12.32C52.92 12.53 52.85 12.75 52.79 13.01C52.74 12.77 52.67 12.53 52.58 12.32L49.35 4.47C49.50 4.47 49.66 4.45 49.78 4.45C49.91 4.45 49.99 4.44 50.05 4.44L50.16 4.44C50.34 4.42 50.44 4.34 50.44 4.19L50.44 3.92L48.94 3.92L48.38 3.92L47.78 3.92L47.78 4.19C47.78 4.34 47.88 4.42 48.06 4.44L48.16 4.44C48.20 4.44 48.27 4.45 48.34 4.45C48.41 4.45 48.51 4.47 48.61 4.47L52.47 13.82L53.10 13.82L56.97 4.47C57.06 4.47 57.16 4.45 57.23 4.45C57.30 4.45 57.37 4.44 57.41 4.44L57.50 4.44C57.68 4.42 57.78 4.34 57.78 4.19L57.78 3.92ZM67.02 3.92L65.83 3.92L65.83 4.19C65.83 4.34 65.93 4.42 66.11 4.44L66.25 4.44C66.32 4.44 66.42 4.45 66.56 4.45C66.70 4.45 66.85 4.47 67.02 4.47L67.02 13.26C66.85 13.26 66.70 13.27 66.56 13.27C66.42 13.27 66.32 13.29 66.25 13.29L66.11 13.29C65.93 13.30 65.84 13.38 65.84 13.54L65.84 13.82L67.02 13.82L72.95 13.82L72.95 13.22L72.95 11.76L72.60 11.76C72.41 11.76 72.32 11.89 72.31 12.11C72.31 12.14 72.30 12.19 72.30 12.29C72.30 12.39 72.30 12.53 72.28 12.74C72.27 12.95 72.25 13.09 72.25 13.22L67.73 13.22L67.73 9.09L71.68 9.09L71.68 8.51L67.73 8.51L67.73 4.51L72.25 4.51C72.28 5.12 72.31 5.50 72.31 5.63C72.32 5.85 72.41 5.96 72.60 5.96L72.95 5.96L72.95 4.51L72.95 3.92ZM87.91 11.97C87.71 11.97 87.63 12.08 87.61 12.31C87.61 12.32 87.61 12.38 87.60 12.43C87.58 12.49 87.58 12.59 87.57 12.71C87.56 12.84 87.54 13.01 87.53 13.20L83.44 13.20L83.44 4.47C83.61 4.47 83.75 4.45 83.89 4.45C84.03 4.45 84.14 4.44 84.21 4.44L84.34 4.44C84.52 4.42 84.62 4.34 84.62 4.19L84.62 3.92L83.44 3.92L82.73 3.92L81.54 3.92L81.54 4.19C81.54 4.34 81.63 4.42 81.82 4.44L81.96 4.44C82.03 4.44 82.12 4.45 82.26 4.45C82.40 4.45 82.56 4.47 82.73 4.47L82.73 13.26C82.56 13.26 82.40 13.27 82.26 13.27C82.12 13.27 82.03 13.29 81.96 13.29L81.82 13.29C81.63 13.30 81.54 13.38 81.54 13.54L81.54 13.82L82.73 13.82L88.00 13.82L88.13 13.82L88.26 13.82L88.26 13.55L88.26 12.99L88.26 11.97L87.98 11.97ZM114.18 3.92L113.83 3.92L108.25 3.92L107.06 3.92L107.06 4.19C107.06 4.34 107.16 4.42 107.34 4.44L107.48 4.44C107.55 4.44 107.65 4.45 107.79 4.45C107.93 4.45 108.08 4.47 108.25 4.47L108.25 13.26C108.08 13.26 107.93 13.27 107.79 13.27C107.65 13.27 107.55 13.29 107.48 13.29L107.34 13.29C107.16 13.30 107.06 13.38 107.06 13.54L107.06 13.82L108.25 13.82L108.96 13.82L110.14 13.82L110.14 13.54C110.14 13.38 110.05 13.30 109.87 13.29L109.73 13.29C109.66 13.29 109.56 13.27 109.42 13.27C109.28 13.27 109.13 13.26 108.96 13.26L108.96 9.27L112.66 9.27L112.66 8.67L108.96 8.67L108.96 4.51L113.57 4.51C113.60 5.18 113.62 5.56 113.62 5.63C113.64 5.85 113.74 5.96 113.93 5.96L114.27 5.96L114.27 3.92ZM130.38 13.29L130.28 13.29L130.10 13.29C130.02 13.29 129.93 13.27 129.85 13.27L126.88 9.53C126.80 9.42 126.69 9.32 126.57 9.25C127.01 9.21 127.40 9.11 127.75 8.96C128.10 8.81 128.38 8.61 128.63 8.37C128.87 8.13 129.07 7.85 129.19 7.55C129.32 7.24 129.39 6.89 129.39 6.51C129.39 5.66 129.11 5.03 128.55 4.58C127.99 4.14 127.13 3.92 125.99 3.92L123.58 3.92L122.40 3.92L122.40 4.19C122.40 4.34 122.49 4.42 122.67 4.44L122.81 4.44C122.88 4.44 122.98 4.45 123.12 4.45C123.26 4.45 123.41 4.47 123.58 4.47L123.58 13.26C123.41 13.26 123.26 13.27 123.12 13.27C122.98 13.27 122.88 13.29 122.81 13.29L122.67 13.29C122.49 13.30 122.39 13.38 122.39 13.54L122.39 13.82L123.58 13.82L124.29 13.82L125.47 13.82L125.47 13.54C125.47 13.38 125.37 13.30 125.19 13.29L125.05 13.29C124.98 13.29 124.88 13.27 124.74 13.27C124.60 13.27 124.46 13.26 124.29 13.26L124.29 9.34L125.47 9.34C125.66 9.34 125.80 9.35 125.89 9.39C125.97 9.44 126.06 9.52 126.14 9.62L129.32 13.64C129.37 13.71 129.42 13.75 129.47 13.78C129.53 13.80 129.60 13.82 129.67 13.82L129.74 13.82L130.28 13.82L130.65 13.82L130.65 13.54C130.65 13.38 130.56 13.30 130.38 13.29ZM125.89 8.81L124.29 8.81L124.29 4.48L125.99 4.48C126.87 4.48 127.54 4.66 128.00 5.00C128.46 5.33 128.69 5.87 128.69 6.57C128.69 6.92 128.63 7.21 128.51 7.49C128.38 7.77 128.18 7.99 127.95 8.19C127.71 8.39 127.41 8.55 127.06 8.65C126.71 8.75 126.32 8.81 125.89 8.81ZM147.81 8.86C147.81 8.11 147.69 7.41 147.46 6.79C147.24 6.17 146.92 5.64 146.50 5.19C146.08 4.75 145.59 4.40 145.01 4.16C144.44 3.92 143.78 3.79 143.08 3.79C142.38 3.79 141.75 3.92 141.18 4.16C140.60 4.40 140.10 4.75 139.68 5.19C139.26 5.64 138.94 6.17 138.71 6.79C138.49 7.41 138.36 8.11 138.36 8.86C138.36 9.63 138.49 10.33 138.71 10.95C138.94 11.56 139.26 12.10 139.68 12.54C140.10 12.99 140.60 13.33 141.18 13.57C141.75 13.80 142.38 13.93 143.08 13.93C143.78 13.93 144.44 13.80 145.01 13.57C145.59 13.33 146.08 12.99 146.50 12.54C146.92 12.10 147.24 11.56 147.46 10.95C147.69 10.33 147.81 9.63 147.81 8.86ZM147.06 8.86C147.06 9.56 146.97 10.18 146.78 10.72C146.58 11.27 146.31 11.75 145.96 12.12C145.61 12.50 145.19 12.81 144.70 13.01C144.21 13.20 143.68 13.30 143.08 13.30C142.49 13.30 141.96 13.20 141.47 13.01C140.98 12.81 140.56 12.50 140.21 12.12C139.86 11.75 139.58 11.27 139.38 10.72C139.19 10.18 139.10 9.56 139.10 8.86C139.10 8.18 139.19 7.55 139.38 7.00C139.58 6.45 139.86 5.98 140.21 5.60C140.56 5.22 140.98 4.91 141.47 4.72C141.96 4.52 142.49 4.41 143.08 4.41C143.68 4.41 144.21 4.52 144.70 4.72C145.19 4.91 145.61 5.22 145.96 5.60C146.31 5.98 146.58 6.45 146.78 7.00C146.97 7.55 147.06 8.18 147.06 8.86ZM167.68 4.44C167.86 4.42 167.96 4.34 167.96 4.19L167.96 3.92L166.78 3.92L166.28 3.92C166.21 3.92 166.17 3.92 166.12 3.93C166.08 3.95 166.05 3.99 166.01 4.05L162.12 10.92C162.08 10.99 162.05 11.06 162.02 11.13C161.99 11.20 161.97 11.28 161.94 11.35C161.88 11.20 161.83 11.06 161.76 10.93L157.75 4.05C157.71 3.99 157.68 3.95 157.64 3.93C157.60 3.92 157.56 3.92 157.49 3.92L157.00 3.92L155.81 3.92L155.81 4.19C155.81 4.34 155.90 4.42 156.09 4.44L156.23 4.44C156.30 4.44 156.39 4.45 156.53 4.45C156.67 4.45 156.83 4.47 157.00 4.47L157.00 13.26C156.83 13.26 156.67 13.27 156.53 13.27C156.39 13.27 156.30 13.29 156.23 13.29L156.09 13.29C155.90 13.30 155.81 13.38 155.81 13.54L155.81 13.82L157.00 13.82L157.61 13.82L158.83 13.82L158.83 13.54C158.83 13.38 158.73 13.30 158.55 13.29L158.41 13.29C158.34 13.29 158.23 13.27 158.09 13.27C157.95 13.27 157.78 13.26 157.61 13.26L157.61 5.38C157.61 5.25 157.61 5.12 157.60 4.98L161.60 11.91C161.67 12.04 161.77 12.10 161.88 12.10L161.99 12.10C162.12 12.10 162.20 12.04 162.27 11.91L166.17 4.98C166.15 5.12 166.15 5.25 166.15 5.38L166.15 13.26C165.98 13.26 165.82 13.27 165.68 13.27C165.54 13.27 165.42 13.29 165.35 13.29L165.21 13.29C165.03 13.30 164.93 13.38 164.93 13.54L164.93 13.82L166.15 13.82L166.78 13.82L167.96 13.82L167.96 13.54C167.96 13.38 167.86 13.30 167.68 13.29L167.55 13.29C167.48 13.29 167.37 13.27 167.23 13.27C167.09 13.27 166.95 13.26 166.78 13.26L166.78 4.47C166.95 4.47 167.09 4.45 167.23 4.45C167.37 4.45 167.48 4.44 167.55 4.44ZM194.81 3.92L194.74 3.92L194.18 3.92L194.07 3.92L192.67 3.92L192.67 4.19C192.67 4.34 192.77 4.42 192.95 4.44L193.06 4.44C193.12 4.44 193.19 4.45 193.30 4.45C193.41 4.45 193.54 4.47 193.68 4.47L191.09 8.64C191.02 8.75 190.96 8.85 190.92 8.95C190.88 9.04 190.83 9.16 190.79 9.25C190.75 9.16 190.71 9.04 190.67 8.95C190.62 8.85 190.57 8.75 190.50 8.64L187.89 4.47C188.03 4.47 188.16 4.45 188.27 4.45C188.38 4.45 188.47 4.44 188.52 4.44L188.62 4.44C188.80 4.42 188.90 4.34 188.90 4.19L188.90 3.92L187.50 3.92L187.39 3.92L186.83 3.92L186.76 3.92L186.31 3.92L186.31 4.19C186.31 4.34 186.41 4.42 186.59 4.44C186.83 4.45 187.01 4.47 187.11 4.47L190.43 9.73L190.43 13.26C190.26 13.26 190.11 13.27 189.97 13.27C189.83 13.27 189.73 13.29 189.66 13.29L189.53 13.29C189.35 13.30 189.25 13.38 189.25 13.54L189.25 13.82L190.43 13.82L191.14 13.82L192.32 13.82L192.32 13.54C192.32 13.38 192.23 13.30 192.05 13.29L191.91 13.29C191.84 13.29 191.74 13.27 191.60 13.27C191.46 13.27 191.31 13.26 191.14 13.26L191.14 9.73L194.46 4.47C194.57 4.47 194.74 4.45 194.98 4.44C195.16 4.42 195.26 4.34 195.26 4.19L195.26 3.92ZM212.00 8.86C212.00 8.11 211.88 7.41 211.65 6.79C211.43 6.17 211.11 5.64 210.69 5.19C210.27 4.75 209.78 4.40 209.20 4.16C208.63 3.92 207.97 3.79 207.27 3.79C206.57 3.79 205.94 3.92 205.37 4.16C204.79 4.40 204.29 4.75 203.87 5.19C203.45 5.64 203.13 6.17 202.90 6.79C202.68 7.41 202.55 8.11 202.55 8.86C202.55 9.63 202.68 10.33 202.90 10.95C203.13 11.56 203.45 12.10 203.87 12.54C204.29 12.99 204.79 13.33 205.37 13.57C205.94 13.80 206.57 13.93 207.27 13.93C207.97 13.93 208.63 13.80 209.20 13.57C209.78 13.33 210.27 12.99 210.69 12.54C211.11 12.10 211.43 11.56 211.65 10.95C211.88 10.33 212.00 9.63 212.00 8.86ZM211.25 8.86C211.25 9.56 211.16 10.18 210.97 10.72C210.77 11.27 210.50 11.75 210.15 12.12C209.80 12.50 209.38 12.81 208.89 13.01C208.40 13.20 207.87 13.30 207.27 13.30C206.68 13.30 206.15 13.20 205.66 13.01C205.17 12.81 204.75 12.50 204.40 12.12C204.05 11.75 203.77 11.27 203.57 10.72C203.38 10.18 203.29 9.56 203.29 8.86C203.29 8.18 203.38 7.55 203.57 7.00C203.77 6.45 204.05 5.98 204.40 5.60C204.75 5.22 205.17 4.91 205.66 4.72C206.15 4.52 206.68 4.41 207.27 4.41C207.87 4.41 208.40 4.52 208.89 4.72C209.38 4.91 209.80 5.22 210.15 5.60C210.50 5.98 210.77 6.45 210.97 7.00C211.16 7.55 211.25 8.18 211.25 8.86ZM228.24 3.92L227.53 3.92L226.17 3.92L226.17 4.19C226.17 4.34 226.27 4.42 226.45 4.44L226.62 4.44C226.72 4.44 226.86 4.45 227.02 4.45C227.19 4.45 227.36 4.47 227.53 4.47L227.53 10.04C227.53 10.50 227.46 10.92 227.32 11.33C227.18 11.73 226.98 12.08 226.72 12.38C226.45 12.67 226.14 12.89 225.76 13.06C225.39 13.23 224.97 13.31 224.49 13.31C224.01 13.31 223.58 13.23 223.20 13.06C222.82 12.89 222.50 12.66 222.25 12.36C221.98 12.07 221.80 11.72 221.66 11.33C221.52 10.93 221.45 10.50 221.45 10.04L221.45 4.47C221.62 4.47 221.79 4.45 221.96 4.45C222.12 4.45 222.26 4.44 222.36 4.44L222.53 4.44C222.71 4.42 222.81 4.34 222.81 4.19L222.81 3.92L221.45 3.92L220.74 3.92L219.56 3.92L219.56 4.19C219.56 4.34 219.65 4.42 219.83 4.44L219.97 4.44C220.04 4.44 220.14 4.45 220.28 4.45C220.42 4.45 220.57 4.47 220.74 4.47L220.74 10.04C220.74 10.58 220.82 11.09 220.99 11.56C221.16 12.04 221.41 12.46 221.73 12.81C222.05 13.16 222.46 13.44 222.92 13.64C223.38 13.83 223.92 13.93 224.49 13.93C225.06 13.93 225.58 13.83 226.04 13.64C226.51 13.44 226.91 13.16 227.23 12.81C227.56 12.46 227.81 12.04 227.98 11.56C228.14 11.09 228.24 10.58 228.24 10.04L228.24 4.47C228.41 4.47 228.55 4.45 228.69 4.45C228.83 4.45 228.94 4.44 229.01 4.44L229.14 4.44C229.32 4.42 229.42 4.34 229.42 4.19L229.42 3.92ZM245.43 13.29L245.34 13.29L245.15 13.29C245.07 13.29 244.99 13.27 244.90 13.27L241.93 9.53C241.85 9.42 241.74 9.32 241.63 9.25C242.06 9.21 242.45 9.11 242.80 8.96C243.15 8.81 243.43 8.61 243.68 8.37C243.92 8.13 244.12 7.85 244.24 7.55C244.37 7.24 244.44 6.89 244.44 6.51C244.44 5.66 244.16 5.03 243.60 4.58C243.04 4.14 242.19 3.92 241.04 3.92L238.63 3.92L237.45 3.92L237.45 4.19C237.45 4.34 237.54 4.42 237.72 4.44L237.86 4.44C237.93 4.44 238.03 4.45 238.17 4.45C238.31 4.45 238.46 4.47 238.63 4.47L238.63 13.26C238.46 13.26 238.31 13.27 238.17 13.27C238.03 13.27 237.93 13.29 237.86 13.29L237.72 13.29C237.54 13.30 237.44 13.38 237.44 13.54L237.44 13.82L238.63 13.82L239.34 13.82L240.52 13.82L240.52 13.54C240.52 13.38 240.42 13.30 240.24 13.29L240.10 13.29C240.03 13.29 239.93 13.27 239.79 13.27C239.65 13.27 239.51 13.26 239.34 13.26L239.34 9.34L240.52 9.34C240.72 9.34 240.86 9.35 240.94 9.39C241.02 9.44 241.11 9.52 241.19 9.62L244.37 13.64C244.43 13.71 244.47 13.75 244.52 13.78C244.58 13.80 244.65 13.82 244.72 13.82L244.79 13.82L245.34 13.82L245.70 13.82L245.70 13.54C245.70 13.38 245.62 13.30 245.43 13.29ZM240.94 8.81L239.34 8.81L239.34 4.48L241.04 4.48C241.92 4.48 242.59 4.66 243.05 5.00C243.52 5.33 243.74 5.87 243.74 6.57C243.74 6.92 243.68 7.21 243.56 7.49C243.43 7.77 243.24 7.99 243.00 8.19C242.76 8.39 242.47 8.55 242.12 8.65C241.77 8.75 241.37 8.81 240.94 8.81ZM274.01 4.44C274.19 4.42 274.29 4.34 274.29 4.19L274.29 3.92L273.11 3.92L272.38 3.92L271.21 3.92L271.21 4.19C271.21 4.34 271.31 4.42 271.49 4.44L271.61 4.44C271.68 4.44 271.80 4.45 271.94 4.45C272.08 4.45 272.22 4.47 272.38 4.47L272.38 8.53L266.18 8.53L266.18 4.47C266.35 4.47 266.50 4.45 266.64 4.45C266.78 4.45 266.88 4.44 266.95 4.44L267.09 4.44C267.27 4.42 267.36 4.34 267.36 4.19L267.36 3.92L266.18 3.92L265.47 3.92L264.28 3.92L264.28 4.19C264.28 4.34 264.38 4.42 264.56 4.44L264.70 4.44C264.77 4.44 264.87 4.45 265.01 4.45C265.15 4.45 265.30 4.47 265.47 4.47L265.47 13.26C265.30 13.26 265.15 13.27 265.01 13.27C264.87 13.27 264.77 13.29 264.70 13.29L264.56 13.29C264.38 13.30 264.28 13.38 264.28 13.54L264.28 13.82L265.47 13.82L266.18 13.82L267.36 13.82L267.36 13.54C267.36 13.38 267.27 13.30 267.09 13.29L266.95 13.29C266.88 13.29 266.78 13.27 266.64 13.27C266.50 13.27 266.35 13.26 266.18 13.26L266.18 9.07L272.38 9.07L272.38 13.26C272.22 13.26 272.08 13.27 271.94 13.27C271.80 13.27 271.68 13.29 271.61 13.29L271.49 13.29C271.31 13.30 271.21 13.38 271.21 13.54L271.21 13.82L272.38 13.82L273.11 13.82L274.29 13.82L274.29 13.54C274.29 13.38 274.19 13.30 274.01 13.29L273.88 13.29C273.81 13.29 273.70 13.27 273.56 13.27C273.42 13.27 273.28 13.26 273.11 13.26L273.11 4.47C273.28 4.47 273.42 4.45 273.56 4.45C273.70 4.45 273.81 4.44 273.88 4.44ZM291.90 8.86C291.90 8.11 291.77 7.41 291.55 6.79C291.33 6.17 291.00 5.64 290.58 5.19C290.16 4.75 289.67 4.40 289.10 4.16C288.53 3.92 287.87 3.79 287.17 3.79C286.47 3.79 285.84 3.92 285.26 4.16C284.69 4.40 284.19 4.75 283.77 5.19C283.35 5.64 283.02 6.17 282.80 6.79C282.58 7.41 282.45 8.11 282.45 8.86C282.45 9.63 282.58 10.33 282.80 10.95C283.02 11.56 283.35 12.10 283.77 12.54C284.19 12.99 284.69 13.33 285.26 13.57C285.84 13.80 286.47 13.93 287.17 13.93C287.87 13.93 288.53 13.80 289.10 13.57C289.67 13.33 290.16 12.99 290.58 12.54C291.00 12.10 291.33 11.56 291.55 10.95C291.77 10.33 291.90 9.63 291.90 8.86ZM291.14 8.86C291.14 9.56 291.06 10.18 290.86 10.72C290.67 11.27 290.40 11.75 290.05 12.12C289.70 12.50 289.28 12.81 288.79 13.01C288.30 13.20 287.77 13.30 287.17 13.30C286.58 13.30 286.05 13.20 285.56 13.01C285.07 12.81 284.65 12.50 284.30 12.12C283.95 11.75 283.67 11.27 283.47 10.72C283.28 10.18 283.19 9.56 283.19 8.86C283.19 8.18 283.28 7.55 283.47 7.00C283.67 6.45 283.95 5.98 284.30 5.60C284.65 5.22 285.07 4.91 285.56 4.72C286.05 4.52 286.58 4.41 287.17 4.41C287.77 4.41 288.30 4.52 288.79 4.72C289.28 4.91 289.70 5.22 290.05 5.60C290.40 5.98 290.67 6.45 290.86 7.00C291.06 7.55 291.14 8.18 291.14 8.86ZM311.77 4.44C311.95 4.42 312.05 4.34 312.05 4.19L312.05 3.92L310.87 3.92L310.37 3.92C310.30 3.92 310.25 3.92 310.21 3.93C310.17 3.95 310.14 3.99 310.10 4.05L306.21 10.92C306.17 10.99 306.14 11.06 306.11 11.13C306.08 11.20 306.05 11.28 306.03 11.35C305.97 11.20 305.91 11.06 305.84 10.93L301.84 4.05C301.80 3.99 301.77 3.95 301.73 3.93C301.69 3.92 301.64 3.92 301.57 3.92L301.08 3.92L299.89 3.92L299.89 4.19C299.89 4.34 299.99 4.42 300.17 4.44L300.31 4.44C300.38 4.44 300.48 4.45 300.62 4.45C300.76 4.45 300.92 4.47 301.08 4.47L301.08 13.26C300.92 13.26 300.76 13.27 300.62 13.27C300.48 13.27 300.38 13.29 300.31 13.29L300.17 13.29C299.99 13.30 299.89 13.38 299.89 13.54L299.89 13.82L301.08 13.82L301.70 13.82L302.92 13.82L302.92 13.54C302.92 13.38 302.82 13.30 302.64 13.29L302.50 13.29C302.43 13.29 302.32 13.27 302.18 13.27C302.04 13.27 301.87 13.26 301.70 13.26L301.70 5.38C301.70 5.25 301.70 5.12 301.69 4.98L305.69 11.91C305.76 12.04 305.86 12.10 305.97 12.10L306.08 12.10C306.21 12.10 306.29 12.04 306.36 11.91L310.25 4.98C310.24 5.12 310.24 5.25 310.24 5.38L310.24 13.26C310.07 13.26 309.90 13.27 309.76 13.27C309.62 13.27 309.51 13.29 309.44 13.29L309.30 13.29C309.12 13.30 309.02 13.38 309.02 13.54L309.02 13.82L310.24 13.82L310.87 13.82L312.05 13.82L312.05 13.54C312.05 13.38 311.95 13.30 311.77 13.29L311.64 13.29C311.57 13.29 311.46 13.27 311.32 13.27C311.18 13.27 311.04 13.26 310.87 13.26L310.87 4.47C311.04 4.47 311.18 4.45 311.32 4.45C311.46 4.45 311.57 4.44 311.64 4.44ZM321.58 3.92L320.39 3.92L320.39 4.19C320.39 4.34 320.49 4.42 320.67 4.44L320.81 4.44C320.88 4.44 320.98 4.45 321.12 4.45C321.26 4.45 321.41 4.47 321.58 4.47L321.58 13.26C321.41 13.26 321.26 13.27 321.12 13.27C320.98 13.27 320.88 13.29 320.81 13.29L320.67 13.29C320.49 13.30 320.40 13.38 320.40 13.54L320.40 13.82L321.58 13.82L327.52 13.82L327.52 13.22L327.52 11.76L327.17 11.76C326.97 11.76 326.89 11.89 326.87 12.11C326.87 12.14 326.86 12.19 326.86 12.29C326.86 12.39 326.86 12.53 326.84 12.74C326.83 12.95 326.82 13.09 326.82 13.22L322.29 13.22L322.29 9.09L326.24 9.09L326.24 8.51L322.29 8.51L322.29 4.51L326.82 4.51C326.84 5.12 326.87 5.50 326.87 5.63C326.89 5.85 326.97 5.96 327.17 5.96L327.52 5.96L327.52 4.51L327.52 3.92Z"></path></g></svg>