<?xml version="1.0" encoding="UTF-8" standalone="no"?>
<svg
   xmlns:dc="http://purl.org/dc/elements/1.1/"
   xmlns:cc="http://creativecommons.org/ns#"
   xmlns:rdf="http://www.w3.org/1999/02/22-rdf-syntax-ns#"
   xmlns:svg="http://www.w3.org/2000/svg"
   xmlns="http://www.w3.org/2000/svg"
   xmlns:xlink="http://www.w3.org/1999/xlink"
   xmlns:sodipodi="http://sodipodi.sourceforge.net/DTD/sodipodi-0.dtd"
   xmlns:inkscape="http://www.inkscape.org/namespaces/inkscape"
   data-v-423bf9ae=""
   viewBox="0 0 94.855637 111.00806"
   class="iconAboveSlogan"
   version="1.1"
   id="svg18"
   sodipodi:docname="favicon.svg"
   width="94.855637"
   height="111.00806"
   inkscape:version="1.0.1 (0767f8302a, 2020-10-17)">
  <metadata
     id="metadata22">
    <rdf:RDF>
      <cc:Work
         rdf:about="">
        <dc:format>image/svg+xml</dc:format>
        <dc:type
           rdf:resource="http://purl.org/dc/dcmitype/StillImage" />
        <dc:title></dc:title>
      </cc:Work>
    </rdf:RDF>
  </metadata>
  <sodipodi:namedview
     pagecolor="#ffffff"
     bordercolor="#666666"
     borderopacity="1"
     objecttolerance="10"
     gridtolerance="10"
     guidetolerance="10"
     inkscape:pageopacity="0"
     inkscape:pageshadow="2"
     inkscape:window-width="1920"
     inkscape:window-height="948"
     id="namedview20"
     showgrid="false"
     lock-margins="false"
     fit-margin-top="0"
     fit-margin-left="0"
     fit-margin-right="0"
     fit-margin-bottom="0"
     inkscape:zoom="3.1333768"
     inkscape:cx="26.141358"
     inkscape:cy="102.48264"
     inkscape:window-x="0"
     inkscape:window-y="27"
     inkscape:window-maximized="1"
     inkscape:current-layer="svg18" />
  <!---->
  <!---->
  <!---->
  <defs
     data-v-423bf9ae=""
     id="defs10">
    <linearGradient
       data-v-423bf9ae=""
       gradientTransform="rotate(25)"
       id="7464820f-85dd-40e6-afb4-f865c7fbfd8a"
       x1="0"
       y1="0"
       x2="1"
       y2="0">
      <stop
         data-v-423bf9ae=""
         offset="0%"
         style="stop-color: rgb(87, 72, 81); stop-opacity: 1;"
         id="stop5" />
      <stop
         data-v-423bf9ae=""
         offset="100%"
         style="stop-color: rgb(149, 168, 177); stop-opacity: 1;"
         id="stop7" />
    </linearGradient>
    <linearGradient
       inkscape:collect="always"
       xlink:href="#7464820f-85dd-40e6-afb4-f865c7fbfd8a"
       id="linearGradient24"
       gradientTransform="scale(0.92438804,1.0817968)"
       x1="9.4543391"
       y1="0.019766647"
       x2="101.85027"
       y2="0.019766647"
       gradientUnits="userSpaceOnUse" />
    <linearGradient
       inkscape:collect="always"
       xlink:href="#7464820f-85dd-40e6-afb4-f865c7fbfd8a"
       id="linearGradient26"
       gradientTransform="scale(0.92438804,1.0817968)"
       x1="9.4543391"
       y1="0.019766647"
       x2="101.85027"
       y2="0.019766647"
       gradientUnits="userSpaceOnUse" />
  </defs>
  <g
     data-v-423bf9ae=""
     id="b7bc44a1-ba23-4b3f-9e44-5adee5067990"
     transform="matrix(1.1105957,0,0,1.1105957,-9.7060264,-0.02374841)"
     stroke="none"
     fill="url(#7464820f-85dd-40e6-afb4-f865c7fbfd8a)"
     style="fill:url(#linearGradient26)">
    <path
       d="M 92.139,54.505 C 85.312,44.228 76.936,49.859 65.815,52.534 54.694,55.207 57.368,37.752 67.363,22.267 77.357,6.782 67.575,1.151 60.043,6.218 c -4.99,3.357 -30.06,14.671 -34.49,3.801 -1.167,-2.864 -2.306,-5.93 -4.136,-7.76 -0.389,-0.39 -0.563,-0.141 -0.431,0.286 0.27,0.875 0.484,1.551 0.873,3.218 0.41,1.662 0.852,3.693 1.292,6.038 0.457,2.343 0.861,5.005 1.21,7.924 0.329,2.919 0.643,6.093 0.777,9.46 0.1,1.683 0.133,3.414 0.176,5.183 0.034,0.885 0.016,1.78 0.008,2.683 l -0.025,2.735 c -0.037,1.817 -0.053,3.641 0.006,5.483 0.028,0.918 0.08,1.836 0.157,2.742 0.076,0.903 0.181,1.805 0.369,2.63 0.093,0.41 0.206,0.803 0.343,1.135 0.136,0.329 0.303,0.586 0.428,0.701 0.132,0.105 0.167,0.133 0.379,0.15 0.201,0.02 0.548,-0.037 0.918,-0.143 0.76,-0.222 1.626,-0.611 2.51,-1.002 0.89,-0.394 1.811,-0.808 2.779,-1.158 1.928,-0.708 4.053,-1.207 6.225,-1.181 2.018,0.047 4.04,0.218 6.033,0.625 1.999,0.396 3.936,1.107 5.709,2.001 1.771,0.903 3.387,1.971 4.892,3.088 3.014,2.236 5.612,4.672 8.064,6.973 2.445,2.3 4.692,4.566 6.74,6.61 0.982,0.928 2.104,1.723 3.188,2.385 1.094,0.662 2.2,1.178 3.279,1.534 2.161,0.733 4.207,0.787 5.811,0.438 0.805,-0.172 1.498,-0.43 2.095,-0.682 a 11.081,11.081 0 0 0 1.451,-0.783 L 87.17,71 c 0.138,-0.103 0.253,-0.191 0.346,-0.262 l 0.284,-0.215 0.008,-0.007 a 0.084,0.084 0 0 1 0.118,0.017 0.085,0.085 0 0 1 -0.013,0.115 l -0.274,0.233 -0.335,0.285 C 87.166,71.275 87,71.394 86.817,71.531 a 10.6,10.6 0 0 1 -3.578,1.704 c -1.659,0.439 -3.819,0.479 -6.118,-0.19 -2.293,-0.66 -4.732,-1.929 -6.954,-3.86 -2.136,-1.997 -4.431,-4.169 -6.911,-6.413 -2.486,-2.233 -5.129,-4.575 -8.077,-6.715 -1.476,-1.062 -3.037,-2.062 -4.713,-2.888 a 21.779,21.779 0 0 0 -5.342,-1.812 c -1.869,-0.371 -3.792,-0.526 -5.721,-0.562 -1.919,-0.013 -3.824,0.436 -5.633,1.11 a 49.98,49.98 0 0 0 -2.688,1.109 c -0.893,0.386 -1.782,0.79 -2.733,1.064 -0.476,0.128 -0.974,0.233 -1.488,0.192 a 2.186,2.186 0 0 1 -1.397,-0.611 c -0.37,-0.362 -0.614,-0.812 -0.802,-1.268 a 8.64,8.64 0 0 1 -0.419,-1.403 c -0.398,-1.899 -0.467,-3.813 -0.511,-5.693 -0.033,-1.882 0.011,-3.74 0.074,-5.565 0.101,-3.645 0.154,-7.171 0.046,-10.513 C 23.786,25.874 23.569,22.719 23.34,19.811 23.073,16.906 22.783,14.246 22.435,11.9 A 111.446,111.446 0 0 0 21.411,5.848 C 21.009,3.796 20.78,2.673 20.275,1.956 18.902,0.011 16.888,-0.415 14.433,0.443 10.799,1.715 8.105,9.125 8.87,34.515 9.601,58.786 23.02,88.977 49.544,91.605 v 2.86 c -14.857,0.096 -26.607,1.291 -26.607,2.752 0,1.524 12.764,2.758 28.507,2.758 15.744,0 28.507,-1.233 28.507,-2.758 0,-1.461 -11.748,-2.656 -26.606,-2.752 V 91.809 C 82.379,91.791 100.397,66.932 92.139,54.505 Z"
       id="path12"
       style="fill:url(#linearGradient24)" />
  </g>
  <!---->
  <g
     data-v-423bf9ae=""
     id="097f85f2-995f-4a9f-8adb-76f3c8a52646"
     fill="#28282d"
     transform="matrix(0.96299497,0,0,0.96299497,-110.79393,221.23006)">
    <path
       d="M 8.22,3.92 H 8.02 0.73 0.52 0.42 v 2.04 h 0.35 c 0.2,0 0.28,-0.11 0.29,-0.33 0,-0.1 0.03,-0.46 0.06,-1.11 h 2.9 v 8.74 c -0.17,0 -0.31,0.01 -0.45,0.01 -0.14,0 -0.25,0.02 -0.32,0.02 H 3.12 C 2.94,13.3 2.84,13.38 2.84,13.54 v 0.28 h 1.18 0.71 1.19 v -0.28 c 0,-0.16 -0.1,-0.24 -0.28,-0.25 H 5.5 c -0.07,0 -0.17,-0.02 -0.31,-0.02 -0.14,0 -0.29,-0.01 -0.46,-0.01 V 4.52 H 7.62 C 7.66,5.24 7.67,5.6 7.67,5.63 7.69,5.85 7.78,5.96 7.98,5.96 H 8.32 V 3.92 Z m 16.2,9.37 h -0.1 -0.18 c -0.09,0 -0.17,-0.02 -0.26,-0.02 L 20.92,9.53 C 20.83,9.42 20.72,9.32 20.61,9.25 21.04,9.21 21.43,9.11 21.78,8.96 22.13,8.81 22.41,8.61 22.67,8.37 22.9,8.13 23.1,7.85 23.23,7.55 23.35,7.24 23.42,6.89 23.42,6.51 23.42,5.66 23.14,5.03 22.58,4.58 22.02,4.14 21.17,3.92 20.02,3.92 h -2.41 -1.17 v 0.27 c 0,0.15 0.08,0.23 0.26,0.25 h 0.14 c 0.07,0 0.17,0.01 0.31,0.01 0.14,0 0.29,0.02 0.46,0.02 v 8.79 c -0.17,0 -0.32,0.01 -0.46,0.01 -0.14,0 -0.24,0.02 -0.31,0.02 H 16.7 c -0.18,0.01 -0.28,0.09 -0.28,0.25 v 0.28 h 1.19 0.72 1.17 v -0.28 c 0,-0.16 -0.1,-0.24 -0.28,-0.25 h -0.14 c -0.07,0 -0.17,-0.02 -0.31,-0.02 -0.14,0 -0.28,-0.01 -0.44,-0.01 V 9.34 h 1.17 c 0.2,0 0.34,0.01 0.42,0.05 0.09,0.05 0.17,0.13 0.25,0.23 l 3.18,4.02 c 0.06,0.07 0.1,0.11 0.16,0.14 0.05,0.02 0.12,0.04 0.19,0.04 h 0.07 0.55 0.36 v -0.28 c 0,-0.16 -0.08,-0.24 -0.26,-0.25 z M 19.92,8.81 H 18.33 V 4.48 h 1.69 c 0.88,0 1.55,0.18 2.02,0.52 0.46,0.33 0.68,0.87 0.68,1.57 0,0.35 -0.05,0.64 -0.18,0.92 -0.13,0.28 -0.32,0.5 -0.56,0.7 -0.24,0.2 -0.53,0.36 -0.88,0.46 -0.35,0.1 -0.74,0.16 -1.18,0.16 z m 22.26,4.41 -0.46,-0.05 -3.78,-9.26 h -0.71 l -3.8,9.26 -0.45,0.05 c -0.18,0.01 -0.26,0.11 -0.26,0.28 v 0.32 h 0.45 0.29 0.25 0.1 1.32 V 13.5 c 0,-0.19 -0.12,-0.27 -0.33,-0.28 -0.01,0 -0.04,-0.02 -0.08,-0.02 -0.04,0 -0.1,-0.01 -0.2,-0.01 -0.09,0 -0.22,0 -0.36,-0.02 l 0.98,-2.42 0.07,-0.18 h 4.73 l 0.07,0.18 0.98,2.42 c -0.14,0.02 -0.25,0.02 -0.35,0.02 -0.1,0 -0.17,0.01 -0.21,0.01 -0.04,0 -0.07,0.02 -0.08,0.02 -0.21,0.01 -0.32,0.09 -0.32,0.28 v 0.32 h 1.31 0.1 0.27 0.28 0.46 V 13.5 c 0,-0.17 -0.09,-0.27 -0.27,-0.28 z m -4.8,-8 c 0.03,-0.08 0.07,-0.18 0.1,-0.28 0.03,-0.1 0.07,-0.19 0.1,-0.31 0.02,0.12 0.07,0.21 0.09,0.31 0.03,0.1 0.07,0.18 0.1,0.27 l 1.96,4.83 h -4.3 z M 57.19,3.92 H 56.63 56.6 55.13 v 0.27 c 0,0.15 0.09,0.23 0.27,0.25 h 0.12 c 0.06,0 0.14,0.01 0.27,0.01 0.13,0 0.27,0.02 0.42,0.02 L 53,12.32 c -0.08,0.21 -0.15,0.43 -0.21,0.69 -0.05,-0.24 -0.12,-0.48 -0.21,-0.69 L 49.35,4.47 c 0.15,0 0.31,-0.02 0.43,-0.02 0.13,0 0.21,-0.01 0.27,-0.01 h 0.11 c 0.18,-0.02 0.28,-0.1 0.28,-0.25 V 3.92 h -1.5 -0.56 -0.6 v 0.27 c 0,0.15 0.1,0.23 0.28,0.25 h 0.1 c 0.04,0 0.11,0.01 0.18,0.01 0.07,0 0.17,0.02 0.27,0.02 l 3.86,9.35 h 0.63 l 3.87,-9.35 c 0.09,0 0.19,-0.02 0.26,-0.02 0.07,0 0.14,-0.01 0.18,-0.01 h 0.09 c 0.18,-0.02 0.28,-0.1 0.28,-0.25 V 3.92 Z m 9.83,0 h -1.19 v 0.27 c 0,0.15 0.1,0.23 0.28,0.25 h 0.14 c 0.07,0 0.17,0.01 0.31,0.01 0.14,0 0.29,0.02 0.46,0.02 v 8.79 c -0.17,0 -0.32,0.01 -0.46,0.01 -0.14,0 -0.24,0.02 -0.31,0.02 h -0.14 c -0.18,0.01 -0.27,0.09 -0.27,0.25 v 0.28 h 1.18 5.93 v -0.6 -1.46 H 72.6 c -0.19,0 -0.28,0.13 -0.29,0.35 0,0.03 -0.01,0.08 -0.01,0.18 0,0.1 0,0.24 -0.02,0.45 -0.01,0.21 -0.03,0.35 -0.03,0.48 H 67.73 V 9.09 h 3.95 V 8.51 h -3.95 v -4 h 4.52 c 0.03,0.61 0.06,0.99 0.06,1.12 0.01,0.22 0.1,0.33 0.29,0.33 h 0.35 V 4.51 3.92 Z m 20.89,8.05 c -0.2,0 -0.28,0.11 -0.3,0.34 0,0.01 0,0.07 -0.01,0.12 -0.02,0.06 -0.02,0.16 -0.03,0.28 -0.01,0.13 -0.03,0.3 -0.04,0.49 H 83.44 V 4.47 c 0.17,0 0.31,-0.02 0.45,-0.02 0.14,0 0.25,-0.01 0.32,-0.01 h 0.13 c 0.18,-0.02 0.28,-0.1 0.28,-0.25 V 3.92 h -1.18 -0.71 -1.19 v 0.27 c 0,0.15 0.09,0.23 0.28,0.25 h 0.14 c 0.07,0 0.16,0.01 0.3,0.01 0.14,0 0.3,0.02 0.47,0.02 v 8.79 c -0.17,0 -0.33,0.01 -0.47,0.01 -0.14,0 -0.23,0.02 -0.3,0.02 h -0.14 c -0.19,0.01 -0.28,0.09 -0.28,0.25 v 0.28 h 1.19 5.27 0.13 0.13 v -0.27 -0.56 -1.02 h -0.28 z m 26.27,-8.05 h -0.35 -5.58 -1.19 v 0.27 c 0,0.15 0.1,0.23 0.28,0.25 h 0.14 c 0.07,0 0.17,0.01 0.31,0.01 0.14,0 0.29,0.02 0.46,0.02 v 8.79 c -0.17,0 -0.32,0.01 -0.46,0.01 -0.14,0 -0.24,0.02 -0.31,0.02 h -0.14 c -0.18,0.01 -0.28,0.09 -0.28,0.25 v 0.28 h 1.19 0.71 1.18 v -0.28 c 0,-0.16 -0.09,-0.24 -0.27,-0.25 h -0.14 c -0.07,0 -0.17,-0.02 -0.31,-0.02 -0.14,0 -0.29,-0.01 -0.46,-0.01 V 9.27 h 3.7 v -0.6 h -3.7 V 4.51 h 4.61 c 0.03,0.67 0.05,1.05 0.05,1.12 0.02,0.22 0.12,0.33 0.31,0.33 h 0.34 V 3.92 Z m 16.2,9.37 h -0.1 -0.18 c -0.08,0 -0.17,-0.02 -0.25,-0.02 l -2.97,-3.74 c -0.08,-0.11 -0.19,-0.21 -0.31,-0.28 0.44,-0.04 0.83,-0.14 1.18,-0.29 0.35,-0.15 0.63,-0.35 0.88,-0.59 0.24,-0.24 0.44,-0.52 0.56,-0.82 0.13,-0.31 0.2,-0.66 0.2,-1.04 0,-0.85 -0.28,-1.48 -0.84,-1.93 -0.56,-0.44 -1.42,-0.66 -2.56,-0.66 h -2.41 -1.18 v 0.27 c 0,0.15 0.09,0.23 0.27,0.25 h 0.14 c 0.07,0 0.17,0.01 0.31,0.01 0.14,0 0.29,0.02 0.46,0.02 v 8.79 c -0.17,0 -0.32,0.01 -0.46,0.01 -0.14,0 -0.24,0.02 -0.31,0.02 h -0.14 c -0.18,0.01 -0.28,0.09 -0.28,0.25 v 0.28 h 1.19 0.71 1.18 v -0.28 c 0,-0.16 -0.1,-0.24 -0.28,-0.25 h -0.14 c -0.07,0 -0.17,-0.02 -0.31,-0.02 -0.14,0 -0.28,-0.01 -0.45,-0.01 V 9.34 h 1.18 c 0.19,0 0.33,0.01 0.42,0.05 0.08,0.05 0.17,0.13 0.25,0.23 l 3.18,4.02 c 0.05,0.07 0.1,0.11 0.15,0.14 0.06,0.02 0.13,0.04 0.2,0.04 h 0.07 0.54 0.37 v -0.28 c 0,-0.16 -0.09,-0.24 -0.27,-0.25 z m -4.49,-4.48 h -1.6 V 4.48 h 1.7 c 0.88,0 1.55,0.18 2.01,0.52 0.46,0.33 0.69,0.87 0.69,1.57 0,0.35 -0.06,0.64 -0.18,0.92 -0.13,0.28 -0.33,0.5 -0.56,0.7 -0.24,0.2 -0.54,0.36 -0.89,0.46 -0.35,0.1 -0.74,0.16 -1.17,0.16 z m 21.92,0.05 c 0,-0.75 -0.12,-1.45 -0.35,-2.07 -0.22,-0.62 -0.54,-1.15 -0.96,-1.6 -0.42,-0.44 -0.91,-0.79 -1.49,-1.03 -0.57,-0.24 -1.23,-0.37 -1.93,-0.37 -0.7,0 -1.33,0.13 -1.9,0.37 -0.58,0.24 -1.08,0.59 -1.5,1.03 -0.42,0.45 -0.74,0.98 -0.97,1.6 -0.22,0.62 -0.35,1.32 -0.35,2.07 0,0.77 0.13,1.47 0.35,2.09 0.23,0.61 0.55,1.15 0.97,1.59 0.42,0.45 0.92,0.79 1.5,1.03 0.57,0.23 1.2,0.36 1.9,0.36 0.7,0 1.36,-0.13 1.93,-0.36 0.58,-0.24 1.07,-0.58 1.49,-1.03 0.42,-0.44 0.74,-0.98 0.96,-1.59 0.23,-0.62 0.35,-1.32 0.35,-2.09 z m -0.75,0 c 0,0.7 -0.09,1.32 -0.28,1.86 -0.2,0.55 -0.47,1.03 -0.82,1.4 -0.35,0.38 -0.77,0.69 -1.26,0.89 -0.49,0.19 -1.02,0.29 -1.62,0.29 -0.59,0 -1.12,-0.1 -1.61,-0.29 -0.49,-0.2 -0.91,-0.51 -1.26,-0.89 -0.35,-0.37 -0.63,-0.85 -0.83,-1.4 -0.19,-0.54 -0.28,-1.16 -0.28,-1.86 0,-0.68 0.09,-1.31 0.28,-1.86 0.2,-0.55 0.48,-1.02 0.83,-1.4 0.35,-0.38 0.77,-0.69 1.26,-0.88 0.49,-0.2 1.02,-0.31 1.61,-0.31 0.6,0 1.13,0.11 1.62,0.31 0.49,0.19 0.91,0.5 1.26,0.88 0.35,0.38 0.62,0.85 0.82,1.4 0.19,0.55 0.28,1.18 0.28,1.86 z m 20.62,-4.42 c 0.18,-0.02 0.28,-0.1 0.28,-0.25 V 3.92 h -1.18 -0.5 c -0.07,0 -0.11,0 -0.16,0.01 -0.04,0.02 -0.07,0.06 -0.11,0.12 l -3.89,6.87 c -0.04,0.07 -0.07,0.14 -0.1,0.21 -0.03,0.07 -0.05,0.15 -0.08,0.22 -0.06,-0.15 -0.11,-0.29 -0.18,-0.42 L 157.75,4.05 C 157.71,3.99 157.68,3.95 157.64,3.93 157.6,3.92 157.56,3.92 157.49,3.92 H 157 155.81 v 0.27 c 0,0.15 0.09,0.23 0.28,0.25 h 0.14 c 0.07,0 0.16,0.01 0.3,0.01 0.14,0 0.3,0.02 0.47,0.02 v 8.79 c -0.17,0 -0.33,0.01 -0.47,0.01 -0.14,0 -0.23,0.02 -0.3,0.02 h -0.14 c -0.19,0.01 -0.28,0.09 -0.28,0.25 v 0.28 h 1.19 0.61 1.22 v -0.28 c 0,-0.16 -0.1,-0.24 -0.28,-0.25 h -0.14 c -0.07,0 -0.18,-0.02 -0.32,-0.02 -0.14,0 -0.31,-0.01 -0.48,-0.01 V 5.38 c 0,-0.13 0,-0.26 -0.01,-0.4 l 4,6.93 c 0.07,0.13 0.17,0.19 0.28,0.19 h 0.11 c 0.13,0 0.21,-0.06 0.28,-0.19 l 3.9,-6.93 c -0.02,0.14 -0.02,0.27 -0.02,0.4 v 7.88 c -0.17,0 -0.33,0.01 -0.47,0.01 -0.14,0 -0.26,0.02 -0.33,0.02 h -0.14 c -0.18,0.01 -0.28,0.09 -0.28,0.25 v 0.28 h 1.22 0.63 1.18 v -0.28 c 0,-0.16 -0.1,-0.24 -0.28,-0.25 h -0.13 c -0.07,0 -0.18,-0.02 -0.32,-0.02 -0.14,0 -0.28,-0.01 -0.45,-0.01 V 4.47 c 0.17,0 0.31,-0.02 0.45,-0.02 0.14,0 0.25,-0.01 0.32,-0.01 z m 27.13,-0.52 h -0.07 -0.56 -0.11 -1.4 v 0.27 c 0,0.15 0.1,0.23 0.28,0.25 h 0.11 c 0.06,0 0.13,0.01 0.24,0.01 0.11,0 0.24,0.02 0.38,0.02 l -2.59,4.17 c -0.07,0.11 -0.13,0.21 -0.17,0.31 -0.04,0.09 -0.09,0.21 -0.13,0.3 -0.04,-0.09 -0.08,-0.21 -0.12,-0.3 -0.05,-0.1 -0.1,-0.2 -0.17,-0.31 l -2.61,-4.17 c 0.14,0 0.27,-0.02 0.38,-0.02 0.11,0 0.2,-0.01 0.25,-0.01 h 0.1 c 0.18,-0.02 0.28,-0.1 0.28,-0.25 V 3.92 h -1.4 -0.11 -0.56 -0.07 -0.45 v 0.27 c 0,0.15 0.1,0.23 0.28,0.25 0.24,0.01 0.42,0.03 0.52,0.03 l 3.32,5.26 v 3.53 c -0.17,0 -0.32,0.01 -0.46,0.01 -0.14,0 -0.24,0.02 -0.31,0.02 h -0.13 c -0.18,0.01 -0.28,0.09 -0.28,0.25 v 0.28 h 1.18 0.71 1.18 v -0.28 c 0,-0.16 -0.09,-0.24 -0.27,-0.25 h -0.14 c -0.07,0 -0.17,-0.02 -0.31,-0.02 -0.14,0 -0.29,-0.01 -0.46,-0.01 V 9.73 l 3.32,-5.26 c 0.11,0 0.28,-0.02 0.52,-0.03 0.18,-0.02 0.28,-0.1 0.28,-0.25 V 3.92 Z M 212,8.86 c 0,-0.75 -0.12,-1.45 -0.35,-2.07 -0.22,-0.62 -0.54,-1.15 -0.96,-1.6 -0.42,-0.44 -0.91,-0.79 -1.49,-1.03 -0.57,-0.24 -1.23,-0.37 -1.93,-0.37 -0.7,0 -1.33,0.13 -1.9,0.37 -0.58,0.24 -1.08,0.59 -1.5,1.03 -0.42,0.45 -0.74,0.98 -0.97,1.6 -0.22,0.62 -0.35,1.32 -0.35,2.07 0,0.77 0.13,1.47 0.35,2.09 0.23,0.61 0.55,1.15 0.97,1.59 0.42,0.45 0.92,0.79 1.5,1.03 0.57,0.23 1.2,0.36 1.9,0.36 0.7,0 1.36,-0.13 1.93,-0.36 0.58,-0.24 1.07,-0.58 1.49,-1.03 0.42,-0.44 0.74,-0.98 0.96,-1.59 0.23,-0.62 0.35,-1.32 0.35,-2.09 z m -0.75,0 c 0,0.7 -0.09,1.32 -0.28,1.86 -0.2,0.55 -0.47,1.03 -0.82,1.4 -0.35,0.38 -0.77,0.69 -1.26,0.89 -0.49,0.19 -1.02,0.29 -1.62,0.29 -0.59,0 -1.12,-0.1 -1.61,-0.29 -0.49,-0.2 -0.91,-0.51 -1.26,-0.89 -0.35,-0.37 -0.63,-0.85 -0.83,-1.4 -0.19,-0.54 -0.28,-1.16 -0.28,-1.86 0,-0.68 0.09,-1.31 0.28,-1.86 0.2,-0.55 0.48,-1.02 0.83,-1.4 0.35,-0.38 0.77,-0.69 1.26,-0.88 0.49,-0.2 1.02,-0.31 1.61,-0.31 0.6,0 1.13,0.11 1.62,0.31 0.49,0.19 0.91,0.5 1.26,0.88 0.35,0.38 0.62,0.85 0.82,1.4 0.19,0.55 0.28,1.18 0.28,1.86 z m 16.99,-4.94 h -0.71 -1.36 v 0.27 c 0,0.15 0.1,0.23 0.28,0.25 h 0.17 c 0.1,0 0.24,0.01 0.4,0.01 0.17,0 0.34,0.02 0.51,0.02 v 5.57 c 0,0.46 -0.07,0.88 -0.21,1.29 -0.14,0.4 -0.34,0.75 -0.6,1.05 -0.27,0.29 -0.58,0.51 -0.96,0.68 -0.37,0.17 -0.79,0.25 -1.27,0.25 -0.48,0 -0.91,-0.08 -1.29,-0.25 -0.38,-0.17 -0.7,-0.4 -0.95,-0.7 -0.27,-0.29 -0.45,-0.64 -0.59,-1.03 -0.14,-0.4 -0.21,-0.83 -0.21,-1.29 V 4.47 c 0.17,0 0.34,-0.02 0.51,-0.02 0.16,0 0.3,-0.01 0.4,-0.01 h 0.17 c 0.18,-0.02 0.28,-0.1 0.28,-0.25 V 3.92 h -1.36 -0.71 -1.18 v 0.27 c 0,0.15 0.09,0.23 0.27,0.25 h 0.14 c 0.07,0 0.17,0.01 0.31,0.01 0.14,0 0.29,0.02 0.46,0.02 v 5.57 c 0,0.54 0.08,1.05 0.25,1.52 0.17,0.48 0.42,0.9 0.74,1.25 0.32,0.35 0.73,0.63 1.19,0.83 0.46,0.19 1,0.29 1.57,0.29 0.57,0 1.09,-0.1 1.55,-0.29 0.47,-0.2 0.87,-0.48 1.19,-0.83 0.33,-0.35 0.58,-0.77 0.75,-1.25 0.16,-0.47 0.26,-0.98 0.26,-1.52 V 4.47 c 0.17,0 0.31,-0.02 0.45,-0.02 0.14,0 0.25,-0.01 0.32,-0.01 h 0.13 c 0.18,-0.02 0.28,-0.1 0.28,-0.25 V 3.92 Z m 17.19,9.37 h -0.09 -0.19 c -0.08,0 -0.16,-0.02 -0.25,-0.02 l -2.97,-3.74 c -0.08,-0.11 -0.19,-0.21 -0.3,-0.28 0.43,-0.04 0.82,-0.14 1.17,-0.29 0.35,-0.15 0.63,-0.35 0.88,-0.59 0.24,-0.24 0.44,-0.52 0.56,-0.82 0.13,-0.31 0.2,-0.66 0.2,-1.04 0,-0.85 -0.28,-1.48 -0.84,-1.93 -0.56,-0.44 -1.41,-0.66 -2.56,-0.66 h -2.41 -1.18 v 0.27 c 0,0.15 0.09,0.23 0.27,0.25 h 0.14 c 0.07,0 0.17,0.01 0.31,0.01 0.14,0 0.29,0.02 0.46,0.02 v 8.79 c -0.17,0 -0.32,0.01 -0.46,0.01 -0.14,0 -0.24,0.02 -0.31,0.02 h -0.14 c -0.18,0.01 -0.28,0.09 -0.28,0.25 v 0.28 h 1.19 0.71 1.18 v -0.28 c 0,-0.16 -0.1,-0.24 -0.28,-0.25 h -0.14 c -0.07,0 -0.17,-0.02 -0.31,-0.02 -0.14,0 -0.28,-0.01 -0.45,-0.01 V 9.34 h 1.18 c 0.2,0 0.34,0.01 0.42,0.05 0.08,0.05 0.17,0.13 0.25,0.23 l 3.18,4.02 c 0.06,0.07 0.1,0.11 0.15,0.14 0.06,0.02 0.13,0.04 0.2,0.04 h 0.07 0.55 0.36 v -0.28 c 0,-0.16 -0.08,-0.24 -0.27,-0.25 z m -4.49,-4.48 h -1.6 V 4.48 h 1.7 c 0.88,0 1.55,0.18 2.01,0.52 0.47,0.33 0.69,0.87 0.69,1.57 0,0.35 -0.06,0.64 -0.18,0.92 -0.13,0.28 -0.32,0.5 -0.56,0.7 -0.24,0.2 -0.53,0.36 -0.88,0.46 -0.35,0.1 -0.75,0.16 -1.18,0.16 z m 33.07,-4.37 c 0.18,-0.02 0.28,-0.1 0.28,-0.25 V 3.92 h -1.18 -0.73 -1.17 v 0.27 c 0,0.15 0.1,0.23 0.28,0.25 h 0.12 c 0.07,0 0.19,0.01 0.33,0.01 0.14,0 0.28,0.02 0.44,0.02 v 4.06 h -6.2 V 4.47 c 0.17,0 0.32,-0.02 0.46,-0.02 0.14,0 0.24,-0.01 0.31,-0.01 h 0.14 c 0.18,-0.02 0.27,-0.1 0.27,-0.25 V 3.92 h -1.18 -0.71 -1.19 v 0.27 c 0,0.15 0.1,0.23 0.28,0.25 h 0.14 c 0.07,0 0.17,0.01 0.31,0.01 0.14,0 0.29,0.02 0.46,0.02 v 8.79 c -0.17,0 -0.32,0.01 -0.46,0.01 -0.14,0 -0.24,0.02 -0.31,0.02 h -0.14 c -0.18,0.01 -0.28,0.09 -0.28,0.25 v 0.28 h 1.19 0.71 1.18 v -0.28 c 0,-0.16 -0.09,-0.24 -0.27,-0.25 h -0.14 c -0.07,0 -0.17,-0.02 -0.31,-0.02 -0.14,0 -0.29,-0.01 -0.46,-0.01 V 9.07 h 6.2 v 4.19 c -0.16,0 -0.3,0.01 -0.44,0.01 -0.14,0 -0.26,0.02 -0.33,0.02 h -0.12 c -0.18,0.01 -0.28,0.09 -0.28,0.25 v 0.28 h 1.17 0.73 1.18 v -0.28 c 0,-0.16 -0.1,-0.24 -0.28,-0.25 h -0.13 c -0.07,0 -0.18,-0.02 -0.32,-0.02 -0.14,0 -0.28,-0.01 -0.45,-0.01 V 4.47 c 0.17,0 0.31,-0.02 0.45,-0.02 0.14,0 0.25,-0.01 0.32,-0.01 z m 17.89,4.42 c 0,-0.75 -0.13,-1.45 -0.35,-2.07 -0.22,-0.62 -0.55,-1.15 -0.97,-1.6 -0.42,-0.44 -0.91,-0.79 -1.48,-1.03 -0.57,-0.24 -1.23,-0.37 -1.93,-0.37 -0.7,0 -1.33,0.13 -1.91,0.37 -0.57,0.24 -1.07,0.59 -1.49,1.03 -0.42,0.45 -0.75,0.98 -0.97,1.6 -0.22,0.62 -0.35,1.32 -0.35,2.07 0,0.77 0.13,1.47 0.35,2.09 0.22,0.61 0.55,1.15 0.97,1.59 0.42,0.45 0.92,0.79 1.49,1.03 0.58,0.23 1.21,0.36 1.91,0.36 0.7,0 1.36,-0.13 1.93,-0.36 0.57,-0.24 1.06,-0.58 1.48,-1.03 0.42,-0.44 0.75,-0.98 0.97,-1.59 0.22,-0.62 0.35,-1.32 0.35,-2.09 z m -0.76,0 c 0,0.7 -0.08,1.32 -0.28,1.86 -0.19,0.55 -0.46,1.03 -0.81,1.4 -0.35,0.38 -0.77,0.69 -1.26,0.89 -0.49,0.19 -1.02,0.29 -1.62,0.29 -0.59,0 -1.12,-0.1 -1.61,-0.29 -0.49,-0.2 -0.91,-0.51 -1.26,-0.89 -0.35,-0.37 -0.63,-0.85 -0.83,-1.4 -0.19,-0.54 -0.28,-1.16 -0.28,-1.86 0,-0.68 0.09,-1.31 0.28,-1.86 0.2,-0.55 0.48,-1.02 0.83,-1.4 0.35,-0.38 0.77,-0.69 1.26,-0.88 0.49,-0.2 1.02,-0.31 1.61,-0.31 0.6,0 1.13,0.11 1.62,0.31 0.49,0.19 0.91,0.5 1.26,0.88 0.35,0.38 0.62,0.85 0.81,1.4 0.2,0.55 0.28,1.18 0.28,1.86 z m 20.63,-4.42 c 0.18,-0.02 0.28,-0.1 0.28,-0.25 V 3.92 h -1.18 -0.5 c -0.07,0 -0.12,0 -0.16,0.01 -0.04,0.02 -0.07,0.06 -0.11,0.12 l -3.89,6.87 c -0.04,0.07 -0.07,0.14 -0.1,0.21 -0.03,0.07 -0.06,0.15 -0.08,0.22 -0.06,-0.15 -0.12,-0.29 -0.19,-0.42 l -4,-6.88 c -0.04,-0.06 -0.07,-0.1 -0.11,-0.12 -0.04,-0.01 -0.09,-0.01 -0.16,-0.01 h -0.49 -1.19 v 0.27 c 0,0.15 0.1,0.23 0.28,0.25 h 0.14 c 0.07,0 0.17,0.01 0.31,0.01 0.14,0 0.3,0.02 0.46,0.02 v 8.79 c -0.16,0 -0.32,0.01 -0.46,0.01 -0.14,0 -0.24,0.02 -0.31,0.02 h -0.14 c -0.18,0.01 -0.28,0.09 -0.28,0.25 v 0.28 h 1.19 0.62 1.22 v -0.28 c 0,-0.16 -0.1,-0.24 -0.28,-0.25 h -0.14 c -0.07,0 -0.18,-0.02 -0.32,-0.02 -0.14,0 -0.31,-0.01 -0.48,-0.01 V 5.38 c 0,-0.13 0,-0.26 -0.01,-0.4 l 4,6.93 c 0.07,0.13 0.17,0.19 0.28,0.19 h 0.11 c 0.13,0 0.21,-0.06 0.28,-0.19 l 3.89,-6.93 c -0.01,0.14 -0.01,0.27 -0.01,0.4 v 7.88 c -0.17,0 -0.34,0.01 -0.48,0.01 -0.14,0 -0.25,0.02 -0.32,0.02 h -0.14 c -0.18,0.01 -0.28,0.09 -0.28,0.25 v 0.28 h 1.22 0.63 1.18 v -0.28 c 0,-0.16 -0.1,-0.24 -0.28,-0.25 h -0.13 c -0.07,0 -0.18,-0.02 -0.32,-0.02 -0.14,0 -0.28,-0.01 -0.45,-0.01 V 4.47 c 0.17,0 0.31,-0.02 0.45,-0.02 0.14,0 0.25,-0.01 0.32,-0.01 z m 9.81,-0.52 h -1.19 v 0.27 c 0,0.15 0.1,0.23 0.28,0.25 h 0.14 c 0.07,0 0.17,0.01 0.31,0.01 0.14,0 0.29,0.02 0.46,0.02 v 8.79 c -0.17,0 -0.32,0.01 -0.46,0.01 -0.14,0 -0.24,0.02 -0.31,0.02 h -0.14 c -0.18,0.01 -0.27,0.09 -0.27,0.25 v 0.28 h 1.18 5.94 v -0.6 -1.46 h -0.35 c -0.2,0 -0.28,0.13 -0.3,0.35 0,0.03 -0.01,0.08 -0.01,0.18 0,0.1 0,0.24 -0.02,0.45 -0.01,0.21 -0.02,0.35 -0.02,0.48 h -4.53 V 9.09 h 3.95 V 8.51 h -3.95 v -4 h 4.53 c 0.02,0.61 0.05,0.99 0.05,1.12 0.02,0.22 0.1,0.33 0.3,0.33 h 0.35 V 4.51 3.92 Z"
       id="path15" />
  </g>
</svg>
